<svg width="386" height="135" viewBox="0 0 386 135" fill="none" xmlns="http://www.w3.org/2000/svg">
<g clip-path="url(#clip0_8231_5688)">
<path d="M117.61 22.0702C83.5097 -15.4998 21.4997 -3.14976 4.16968 44.3102C-13.4603 92.5702 27.4397 141.98 78.0197 134.16C130.79 126 153.62 61.7402 117.61 22.0702ZM31.5897 119.48C17.3597 109.71 7.48968 93.9702 4.99968 76.8202C-1.22032 34.0702 35.8597 -2.25976 78.5197 5.05024C79.7397 5.26024 86.4797 6.70024 86.9397 7.37024C88.2797 14.0702 87.0597 21.8402 84.5097 28.1502C81.5097 35.5502 76.4597 41.4002 70.8097 46.8302C63.5597 53.8002 56.1097 58.4102 48.1297 64.2802C38.6597 71.2402 32.9397 80.5602 31.4597 92.3602C30.8197 97.4602 31.5697 101.16 31.7197 106.09C31.8297 109.84 31.5597 113.62 31.6997 117.37C31.7197 117.79 32.3597 119.7 31.5897 119.48ZM68.5697 129.24C68.7697 129.81 70.0197 130.3 69.4597 130.61C68.7897 130.98 62.6297 130.6 61.3397 130.48C52.2597 129.62 43.3797 126.57 35.5597 121.99L35.4897 121.65C36.2597 120.42 36.4197 118.58 36.4697 117.12C36.7497 109.72 35.0197 102.16 35.7097 94.6102C38.1597 68.1602 61.1797 63.7802 76.7197 47.3602C84.8497 38.7602 90.3597 27.8002 91.9597 15.9802C92.4197 15.8702 92.4497 16.1402 92.6697 16.4002C98.7797 23.4902 97.6997 34.7902 98.2097 43.3502C98.6497 50.7102 102.39 55.6402 107.33 60.7402C108.11 61.5402 111.33 63.9502 111.47 64.8702C111.71 66.5302 108.77 67.3702 107.73 68.1202C105.92 69.4202 104.92 71.5702 105.27 73.8002C105.66 76.2702 108.2 77.5702 106.12 79.8902C105.15 80.9702 103.09 82.2502 101.71 82.7302L101.86 83.2502L105.95 85.8802C105.62 86.6902 104.86 87.0202 104.48 87.8802C102.8 91.7502 105.92 97.2402 101.54 100.19C97.1597 103.14 91.6097 100.81 87.0197 100.05C77.1197 98.4102 70.3297 97.8802 68.0697 109.47C67.1897 114.03 67.0697 124.93 68.5697 129.24ZM73.1897 130.38L71.7097 123.1C71.3397 117.92 71.3097 112.01 73.1997 107.1C74.2197 104.49 75.8197 102.77 78.7997 103.01C85.7797 103.57 92.1197 105.93 99.5997 105.24C107.19 104.54 109.43 96.6002 108.01 90.1602C109.57 88.1702 110.04 87.1802 109.97 84.5902C109.95 83.7702 109.54 82.9902 109.71 82.1102C109.9 81.1502 111.3 80.4302 111.4 78.5302C111.53 76.2002 109.16 73.3302 109.5 72.1602C109.78 71.2202 113.17 70.0602 114.12 69.1402C115.48 67.8502 115.7 65.6902 115.4 63.9102C114.72 59.8902 106.37 54.1702 104.11 49.9502C101.39 44.8602 102.98 39.2502 102.71 33.8602C102.39 27.5702 99.9097 20.4302 96.8397 14.9702C95.7397 13.0102 94.6197 11.2502 92.9597 9.73024C96.2197 10.7202 99.5697 12.7502 102.44 14.6302C125 29.3702 135.67 57.2802 128.84 83.4802C122.19 108.97 99.6197 128.45 73.1897 130.38Z" fill="black"/>
<path d="M318.73 44.6303C317.7 45.4303 317.26 46.6003 316.64 47.1503C316.4 47.3703 316.03 47.5303 315.72 47.3603C308.75 39.2103 294.05 39.8303 287.61 48.2503C283.24 53.9603 283.15 62.6803 287.21 68.6003C288.04 69.8003 289.51 70.8302 290.21 71.8503C290.36 72.0602 290.56 72.1003 290.46 72.4803C284.61 74.3703 280.2 77.8703 280.96 84.6103C281.47 89.1503 284.75 90.1403 287.89 92.1702C288.13 92.3302 288.33 92.1403 288.21 92.7303C282.18 93.8503 276.67 96.5103 276.2 103.35C275.12 118.91 295.76 119.91 306.51 116.66C317 113.49 325.83 104.16 323.04 92.5202C320.92 83.6502 311.69 82.9003 304.09 83.7303C299.53 84.2303 289.35 87.5303 286.61 82.4502C284.47 78.4602 287.96 73.1903 292.3 73.5003C295.57 73.7303 298.94 76.0902 302.77 75.6702C311.69 74.6802 319.01 67.6203 318.97 58.3703C318.96 55.7703 317.57 51.6703 317.7 49.3603C317.81 47.3903 321.16 43.8203 322.83 45.7403C324.21 47.3403 320.96 49.4703 323.71 51.8603C326.02 53.8603 330.29 52.9303 330.72 49.6203C331.76 41.6703 323.64 40.8103 318.73 44.6303ZM290.03 93.4303C293.96 92.9703 297.88 92.4403 301.81 91.9603C304.86 91.6003 307.52 90.9902 310.55 91.2803C311.11 91.3302 311.68 91.4103 312.27 91.5403C314.09 91.9203 315.51 92.6903 316.57 93.7002C320.63 97.5602 319.54 105.12 315.59 109.49C315.36 109.74 315.13 109.98 314.87 110.22C314.62 110.46 314.37 110.69 314.1 110.92C313.29 111.6 312.4 112.23 311.45 112.78C310.81 113.15 310.15 113.49 309.46 113.81C307.06 114.9 304.39 115.62 301.71 115.89C301.7 115.9 301.7 115.89 301.7 115.89C300.91 115.97 300.13 116.01 299.35 116C297.01 116 294.72 115.62 292.65 114.82C291.03 114.19 289.56 113.3 288.31 112.12C284.92 108.91 284 103.27 285.64 98.8003C285.87 98.1803 286.15 97.5803 286.48 97.0103C286.72 96.5903 286.99 96.1903 287.29 95.8102C287.59 95.4302 287.91 95.0703 288.26 94.7402C288.79 94.2402 289.38 93.8003 290.03 93.4303ZM308.75 70.4003C306.09 75.3803 299.48 75.6003 296.25 71.0602C292.54 65.8403 292.09 49.9003 296.55 45.0703C298.84 42.5803 303.69 42.2303 306.33 44.2403C311.94 48.5003 311.79 64.7103 308.75 70.4003Z" fill="black"/>
<path d="M336.83 89.98C335.55 89.79 336.52 88.87 337.25 88.65C339.67 87.9 343.11 89.92 343.18 86.08C342.82 74.96 343.77 63.42 343.22 52.35C343.18 51.48 343.09 49.6 342.95 48.87C342.51 46.49 337.05 48.35 335.46 47.61C334.72 47.27 334.92 46.5 335.63 46.29C336.38 46.06 337.49 46.34 338.32 46.23C341.68 45.81 345.86 44.89 348.78 43.19C349.6 42.71 350.25 41.48 351.42 41.76C351.36 42.05 351.69 42.48 351.69 42.61V48.49C352.04 48.51 352.17 48.57 352.45 48.32C353.11 47.75 353.88 46.56 354.69 45.86C362.25 39.32 376.57 39.77 378.88 51.18C379.1 52.27 379.37 54.26 379.44 55.37C380.13 65.68 378.88 76.67 379.5 87.06C379.97 89.72 383.79 88.34 385.7 88.86C386.06 89.01 385.75 89.99 385.69 89.99H363.57C363.1 89.99 363.1 88.74 363.57 88.74H368.32C368.48 88.74 370.08 88.25 370.2 88.12C370.49 87.55 370.63 86.74 370.69 86.11C371.45 77.7 370.78 66.19 370.43 57.62C370.3 54.34 370.83 51.41 369.23 48.32C365.71 41.52 352.77 45.23 351.97 52.64C351.18 59.95 352.04 69.85 352.2 77.35C352.26 80.31 351.81 84.35 352.18 87.12C352.31 88.12 353.35 88.73 354.32 88.73H358.32C358.79 88.73 358.79 89.98 358.32 89.98H336.82H336.83Z" fill="black"/>
<path d="M211.71 84.73C211.15 84.34 208.97 86.92 208.19 87.33C207 87.96 204.79 88.3 203.52 87.79C202.13 87.23 201.57 84.97 201.45 83.61C200.55 73.11 202.33 61.43 201.21 50.85C200.3 42.24 189.68 41.12 182.84 41.73C175.79 42.36 168.74 47.9 169.74 55.58C170.19 59.02 173.68 60.95 176.97 60.11C179.92 59.36 180.83 55.45 179.21 53.11C177.25 50.29 173.56 52.67 175.59 47.73C177.96 41.95 188.66 41.26 191.56 47.51C192.93 50.48 193.38 60.04 192.97 63.37C192.94 63.68 192.99 63.87 192.71 64.11C192.42 64.36 186.27 65.49 185.16 65.8C177.3 68.02 168.72 73.25 169.46 82.6C170.21 92.04 182.49 93.67 188.83 88.47C190.48 87.12 191.48 85.22 192.96 83.73C192.75 93.53 206.21 92.18 210.96 87.1C211.34 86.69 212.33 85.17 211.71 84.73ZM192.96 78.36L192.65 80.3C189 90.21 176.53 88.53 177.7 76.84C178.39 69.88 186.99 66.79 192.96 65.98V78.36Z" fill="black"/>
<path d="M230.96 18.73V87.85C231.18 88.22 232.24 88.73 232.58 88.73H237.58C237.81 88.73 238.42 89.66 238.2 89.98C233.38 90.62 228.45 89.87 223.57 89.98C221.61 90.02 219.59 90.21 217.58 90.24C216.32 90.26 214.44 91.09 215.2 88.74H220.82C221.12 88.74 222.13 87.87 221.96 87.38V20.86L222.37 20.28L230.95 18.73H230.96Z" fill="black"/>
<path d="M247.83 46.73C247.56 46.65 247.36 46.16 247.46 45.86C247.67 45.15 252.09 45.11 253.06 44.96C254.81 44.68 257.24 43.97 258.88 43.28C259.58 42.98 262.56 41.09 262.96 41.48L263.47 44.1V87.1C263.84 89.12 269.1 88.62 270.67 88.77L270.94 89.96C270.36 90.78 265.51 90.11 264.34 89.97C259.35 89.41 253.4 90.8 248.57 90.24C247.68 90.14 247.51 89.83 247.81 88.96L248.11 88.76C249.59 88.34 254.1 89.11 254.44 87.34L254.46 48.58L253.95 46.72H247.83V46.73Z" fill="black"/>
<path d="M261.619 25.4C258.749 28.17 253.159 25.93 253.199 21.62C253.239 17.79 256.079 16.48 259.569 17C263.059 17.52 263.889 23.22 261.629 25.4H261.619Z" fill="black"/>
<path d="M285.64 98.7998C285.87 98.1698 286.15 97.5798 286.48 97.0098C286.15 97.5798 285.87 98.1798 285.64 98.7998Z" fill="white"/>
<path d="M287.29 95.8102C287.58 95.4302 287.91 95.0702 288.26 94.7402C287.91 95.0702 287.59 95.4302 287.29 95.8102Z" fill="white"/>
<path d="M299.34 116C300.12 116 300.91 115.96 301.69 115.89C300.9 115.97 300.12 116.01 299.34 116Z" fill="white"/>
<path d="M292.649 114.82C294.709 115.62 296.999 116 299.349 116C297.009 116 294.719 115.62 292.649 114.82Z" fill="white"/>
<path d="M301.71 115.89C304.39 115.62 307.06 114.9 309.46 113.81C307.06 114.91 304.39 115.63 301.71 115.89Z" fill="white"/>
<path d="M309.46 113.81C310.15 113.49 310.81 113.15 311.45 112.78C310.81 113.16 310.15 113.5 309.46 113.81Z" fill="white"/>
</g>
<defs>
<clipPath id="clip0_8231_5688">
<rect width="385.89" height="134.98" fill="white"/>
</clipPath>
</defs>
</svg>
