<svg width="28" height="28" viewBox="0 0 28 28" fill="none" xmlns="http://www.w3.org/2000/svg">
<rect width="28" height="28" rx="14" fill="white"/>
<path d="M18.6188 10.112V16.4314C18.6188 16.6248 18.542 16.8103 18.4053 16.947C18.2685 17.0838 18.0831 17.1606 17.8897 17.1606C17.6963 17.1606 17.5108 17.0838 17.3741 16.947C17.2373 16.8103 17.1605 16.6248 17.1605 16.4314V11.8741L10.6278 18.4056C10.4908 18.5426 10.305 18.6196 10.1113 18.6196C9.91757 18.6196 9.73178 18.5426 9.5948 18.4056C9.45782 18.2687 9.38086 18.0829 9.38086 17.8891C9.38086 17.6954 9.45782 17.5096 9.5948 17.3727L16.1275 10.8411H11.5702C11.3768 10.8411 11.1914 10.7643 11.0546 10.6276C10.9179 10.4908 10.8411 10.3054 10.8411 10.112C10.8411 9.91859 10.9179 9.73313 11.0546 9.59638C11.1914 9.45964 11.3768 9.38281 11.5702 9.38281H17.8897C18.0831 9.38281 18.2685 9.45964 18.4053 9.59638C18.542 9.73313 18.6188 9.91859 18.6188 10.112Z" fill="#0D0503"/>
</svg>
