<svg width="12" height="18" viewBox="0 0 12 18" fill="none" xmlns="http://www.w3.org/2000/svg">
<path d="M11.25 6.75H6.79655L7.49693 0.838531C7.49927 0.824249 7.49995 0.76506 7.49995 0.749954C7.49995 0.329315 7.17078 0 6.75 0C6.5153 0 6.29022 0.111786 6.13806 0.31723L0.149963 9.30006C0.0532837 9.42902 0 9.58873 0 9.74995C0 10.1707 0.329315 10.5 0.749954 10.5H4.45798L3.75224 17.1727C3.75073 17.1862 3.75005 17.2365 3.75005 17.25C3.75005 17.6707 4.07922 18 4.5 18C4.7347 18 4.95978 17.8882 5.10823 17.688L11.85 7.94998C11.9468 7.82103 12 7.66132 12 7.49995C12 7.07932 11.6708 6.75 11.25 6.75Z" fill="#FFC107"/>
</svg>
