<svg width="36" height="36" viewBox="0 0 36 36" fill="none" xmlns="http://www.w3.org/2000/svg">
<path d="M35.8068 5.59389C35.6049 5.25611 35.2718 5.01929 34.8875 4.94199L14.4957 0.0259098C13.8236 -0.104367 13.1606 0.266885 12.928 0.909025L5.15522 20.6554L7.75012 21.601L15.1162 2.8254L32.8343 7.34672C31.7278 10.7771 29.0947 17.9371 26.5706 24.6038C24.37 30.4204 23.1037 32.4123 20.6968 32.8191C20.694 32.8162 20.6914 32.8135 20.6914 32.8092C15.7725 33.4988 15.8608 27.2279 15.8608 27.2279L0.15107 20.8821C-0.965305 27.9581 4.47181 29.66 4.47181 29.66L15.9735 34.882C15.9763 34.8834 17.7717 35.7386 19.7232 35.6507C24.9869 35.5268 26.8367 31.7047 29.1544 25.5814C32.5029 16.7318 35.9015 6.81594 35.9349 6.71077C36.0547 6.33559 36.0074 5.93093 35.8068 5.59389Z" fill="#23234E"/>
<path d="M26.5114 13.5566C26.6312 13.5893 26.7552 13.6067 26.8777 13.6067C27.4835 13.6067 28.0378 13.2028 28.2077 12.5899C28.4096 11.8537 27.9736 11.0933 27.2385 10.8927L21.2535 9.04544C20.5265 8.8442 19.7575 9.27666 19.5569 10.0121C19.3563 10.7482 19.7882 11.5088 20.5262 11.7101L26.5114 13.5566Z" fill="#23234E"/>
<path d="M17.1606 15.5431C16.9207 16.2682 17.3102 17.0489 18.0332 17.2909L23.9867 19.4185C24.1313 19.4666 24.2734 19.4882 24.4167 19.489C24.9974 19.492 25.5413 19.1257 25.7352 18.5457C25.9758 17.8227 25.587 17.0407 24.8611 16.7989L18.9098 14.6727C18.1825 14.4321 17.4033 14.8214 17.1606 15.5431Z" fill="#23234E"/>
<path d="M16.6366 20.4385C15.9123 20.1962 15.1302 20.5916 14.8934 21.3189C14.6552 22.0404 15.0522 22.8232 15.7765 23.06L21.7425 25.1787C21.8862 25.2274 22.0294 25.2483 22.1745 25.2483C22.7539 25.2483 23.2944 24.8793 23.4853 24.2997C23.7234 23.574 23.3279 22.7927 22.6036 22.5558L16.6366 20.4385Z" fill="#23234E"/>
<path d="M16.415 7.43359C17.2605 7.43359 17.9465 8.10077 17.9465 8.9226C17.9465 9.74509 17.2605 10.4115 16.415 10.4115C15.5688 10.4115 14.8828 9.74502 14.8828 8.9226C14.8829 8.10077 15.5688 7.43359 16.415 7.43359Z" fill="#23234E"/>
<path d="M14.249 12.9707C15.0952 12.9707 15.7805 13.6372 15.7805 14.459C15.7805 15.2801 15.0952 15.9465 14.249 15.9465C13.4028 15.9465 12.7168 15.2801 12.7168 14.459C12.7168 13.6373 13.4028 12.9707 14.249 12.9707Z" fill="#23234E"/>
<path d="M11.9384 18.6816C12.7846 18.6816 13.4706 19.3489 13.4706 20.1721C13.4706 20.9938 12.7846 21.6596 11.9384 21.6596C11.0923 21.6596 10.4062 20.9939 10.4062 20.1721C10.4062 19.3489 11.0923 18.6816 11.9384 18.6816Z" fill="#23234E"/>
</svg>
