<svg width="17" height="17" viewBox="0 0 17 17" fill="none" xmlns="http://www.w3.org/2000/svg">
<path d="M12.2258 5.89922C12.3132 5.98632 12.3825 6.08981 12.4298 6.20376C12.4772 6.31772 12.5015 6.43989 12.5015 6.56328C12.5015 6.68667 12.4772 6.80884 12.4298 6.9228C12.3825 7.03675 12.3132 7.14025 12.2258 7.22734L7.85078 11.6023C7.76369 11.6897 7.66019 11.7591 7.54624 11.8064C7.43228 11.8537 7.31011 11.8781 7.18672 11.8781C7.06333 11.8781 6.94116 11.8537 6.8272 11.8064C6.71325 11.7591 6.60976 11.6897 6.52266 11.6023L4.64766 9.72734C4.56045 9.64014 4.49128 9.53661 4.44408 9.42267C4.39689 9.30873 4.3726 9.18661 4.3726 9.06328C4.3726 8.93995 4.39689 8.81783 4.44408 8.70389C4.49128 8.58995 4.56045 8.48642 4.64766 8.39922C4.73487 8.31201 4.83839 8.24284 4.95233 8.19564C5.06627 8.14845 5.18839 8.12416 5.31172 8.12416C5.43505 8.12416 5.55717 8.14845 5.67111 8.19564C5.78505 8.24284 5.88858 8.31201 5.97578 8.39922L7.1875 9.60938L10.8992 5.89688C10.9864 5.80986 11.09 5.7409 11.2039 5.69392C11.3178 5.64694 11.4398 5.62287 11.563 5.62309C11.6862 5.62331 11.8081 5.64781 11.9219 5.69519C12.0356 5.74257 12.1389 5.8119 12.2258 5.89922ZM16.875 8.4375C16.875 10.1063 16.3802 11.7376 15.453 13.1251C14.5259 14.5127 13.2081 15.5941 11.6664 16.2327C10.1246 16.8713 8.42814 17.0384 6.79143 16.7129C5.15471 16.3873 3.6513 15.5837 2.47129 14.4037C1.29129 13.2237 0.487691 11.7203 0.162128 10.0836C-0.163435 8.44686 0.00365585 6.75036 0.64227 5.20861C1.28088 3.66686 2.36234 2.3491 3.74988 1.42198C5.13742 0.494851 6.76872 0 8.4375 0C10.6745 0.00248142 12.8192 0.892227 14.401 2.47403C15.9828 4.05583 16.8725 6.2005 16.875 8.4375ZM15 8.4375C15 7.13956 14.6151 5.87077 13.894 4.79157C13.1729 3.71237 12.148 2.87124 10.9489 2.37454C9.74972 1.87784 8.43022 1.74788 7.15722 2.0011C5.88422 2.25431 4.7149 2.87933 3.79712 3.79711C2.87933 4.71489 2.25432 5.88422 2.0011 7.15722C1.74788 8.43022 1.87784 9.74972 2.37454 10.9489C2.87124 12.148 3.71238 13.1729 4.79157 13.894C5.87077 14.6151 7.13956 15 8.4375 15C10.1774 14.9981 11.8455 14.3061 13.0758 13.0758C14.3061 11.8455 14.9981 10.1774 15 8.4375Z" fill="white"/>
</svg>
