<svg width="36" height="36" viewBox="0 0 36 36" fill="none" xmlns="http://www.w3.org/2000/svg">
<g clip-path="url(#clip0_8231_3774)">
<path d="M6 13.5C8.48528 13.5 10.5 11.4853 10.5 9C10.5 6.51472 8.48528 4.5 6 4.5C3.51472 4.5 1.5 6.51472 1.5 9C1.5 11.4853 3.51472 13.5 6 13.5Z" fill="#23234E"/>
<path d="M10.935 16.605C9.42525 17.5471 8.18008 18.8579 7.31673 20.414C6.45338 21.9702 6.00025 23.7204 6 25.5H3C2.20508 25.4976 1.4434 25.1808 0.881302 24.6187C0.319207 24.0566 0.00237409 23.2949 0 22.5L0 19.5C0.00356114 18.3076 0.47881 17.1651 1.32195 16.322C2.1651 15.4788 3.30762 15.0036 4.5 15H7.5C8.15486 15.0015 8.8015 15.1459 9.39479 15.4231C9.98808 15.7003 10.5137 16.1036 10.935 16.605Z" fill="#23234E"/>
<path d="M30 13.5C32.4853 13.5 34.5 11.4853 34.5 9C34.5 6.51472 32.4853 4.5 30 4.5C27.5147 4.5 25.5 6.51472 25.5 9C25.5 11.4853 27.5147 13.5 30 13.5Z" fill="#23234E"/>
<path d="M35.9995 19.5V22.5C35.9971 23.2949 35.6802 24.0566 35.1182 24.6187C34.5561 25.1808 33.7944 25.4976 32.9995 25.5H29.9995C29.9992 23.7204 29.5461 21.9702 28.6827 20.414C27.8194 18.8579 26.5742 17.5471 25.0645 16.605C25.4857 16.1036 26.0114 15.7003 26.6047 15.4231C27.198 15.1459 27.8446 15.0015 28.4995 15H31.4995C32.6918 15.0036 33.8344 15.4788 34.6775 16.322C35.5206 17.1651 35.9959 18.3076 35.9995 19.5Z" fill="#23234E"/>
<path d="M18 16.5C21.3137 16.5 24 13.8137 24 10.5C24 7.18629 21.3137 4.5 18 4.5C14.6863 4.5 12 7.18629 12 10.5C12 13.8137 14.6863 16.5 18 16.5Z" fill="#23234E"/>
<path d="M27 25.5V27C26.9964 28.1924 26.5212 29.3349 25.678 30.178C24.8349 31.0212 23.6924 31.4964 22.5 31.5H13.5C12.3076 31.4964 11.1651 31.0212 10.322 30.178C9.47881 29.3349 9.00356 28.1924 9 27V25.5C9 23.5109 9.79018 21.6032 11.1967 20.1967C12.6032 18.7902 14.5109 18 16.5 18H19.5C21.4891 18 23.3968 18.7902 24.8033 20.1967C26.2098 21.6032 27 23.5109 27 25.5Z" fill="#23234E"/>
</g>
<defs>
<clipPath id="clip0_8231_3774">
<rect width="36" height="36" fill="white"/>
</clipPath>
</defs>
</svg>
