<svg width="36" height="36" viewBox="0 0 36 36" fill="none" xmlns="http://www.w3.org/2000/svg">
<path d="M16.7852 23.9316L12.073 19.2194L19.2151 12.0773L23.9273 16.7895L16.7852 23.9316Z" fill="#23234E"/>
<path d="M0.974259 22.2573C-0.324765 23.5565 -0.324765 25.6705 0.974329 26.9699L2.64446 28.6401L1.77955 29.5049C1.15018 30.1344 0.80347 30.9712 0.80347 31.8614C0.80347 32.7515 1.15025 33.5884 1.77962 34.2176C2.40892 34.8471 3.24584 35.1938 4.13607 35.1938C5.01934 35.1938 5.85001 34.8525 6.47769 34.2324C6.48275 34.2275 6.48774 34.2226 6.49267 34.2177L7.35737 33.353L9.02764 35.0233C9.65694 35.6525 10.4938 35.9991 11.384 35.9992C12.2743 35.9992 13.1114 35.6525 13.741 35.0229C14.0461 34.7177 14.2783 34.367 14.4399 33.993L2.00356 21.5566C1.62444 21.7213 1.27527 21.9561 0.974259 22.2573Z" fill="#23234E"/>
<path d="M35.0239 9.02953L33.3537 7.35926L34.2063 6.50658C34.2106 6.5025 34.2146 6.49849 34.2188 6.49434C35.5179 5.19518 35.518 3.08102 34.2189 1.78137C33.5895 1.152 32.7526 0.805359 31.8625 0.805359C30.9725 0.805359 30.1355 1.15193 29.5059 1.78123C29.5005 1.78664 29.4952 1.79205 29.4898 1.79761L28.641 2.64642L26.9706 0.976008C26.3413 0.346711 25.5045 0 24.6144 0C23.7241 0 22.8873 0.346711 22.258 0.976148C21.9526 1.28159 21.7204 1.63252 21.5586 2.00672L33.9945 14.4426C34.3736 14.278 34.7227 14.0432 35.024 13.7422C35.6534 13.1127 36.0001 12.2759 36.0001 11.3857C36.0001 10.4955 35.6534 9.65876 35.0239 9.02953Z" fill="#23234E"/>
<path d="M15.2915 25.4188L10.5786 20.706L7.29777 17.4252C6.66841 16.7959 5.83155 16.4492 4.94153 16.4492C4.05145 16.4492 3.21445 16.7959 2.58466 17.4254C2.27943 17.7307 2.04648 18.081 1.88477 18.4551L17.5436 34.1138C17.9227 33.9492 18.2715 33.7137 18.5726 33.4126C19.202 32.7832 19.5485 31.9463 19.5485 31.0561C19.5485 30.1659 19.2019 29.329 18.5725 28.6998L15.2915 25.4188Z" fill="#23234E"/>
<path d="M17.4254 2.58599C16.1264 3.8853 16.1264 5.99945 17.4255 7.29876L20.7064 10.5795L25.4194 15.2925L25.4195 15.2924L28.7001 18.573L28.7003 18.5732L28.7004 18.5733C29.3299 19.2026 30.1667 19.5492 31.0567 19.5492H31.0568C31.9468 19.5492 32.7837 19.2025 33.413 18.5732C33.714 18.2724 33.9496 17.9237 34.1143 17.5448L18.4542 1.88477C18.0753 2.04944 17.7265 2.28498 17.4254 2.58599Z" fill="#23234E"/>
</svg>
