<svg width="24" height="24" viewBox="0 0 24 24" fill="none" xmlns="http://www.w3.org/2000/svg">
<g clip-path="url(#clip0_8231_3873)">
<g clip-path="url(#clip1_8231_3873)">
<g clip-path="url(#clip2_8231_3873)">
<mask id="mask0_8231_3873" style="mask-type:luminance" maskUnits="userSpaceOnUse" x="0" y="0" width="24" height="24">
<path d="M24 12C24 5.37258 18.6274 0 12 0C5.37258 0 0 5.37258 0 12C0 18.6274 5.37258 24 12 24C18.6274 24 24 18.6274 24 12Z" fill="white"/>
</mask>
<g mask="url(#mask0_8231_3873)">
<path d="M24 12C24 5.373 18.627 0 12 0C5.373 0 0 5.373 0 12C0 17.99 4.388 22.954 10.125 23.854V15.47H7.078V12H10.125V9.356C10.125 6.349 11.917 4.688 14.658 4.688C15.97 4.688 17.344 4.922 17.344 4.922V7.875H15.83C14.339 7.875 13.874 8.8 13.874 9.75V12H17.202L16.67 15.469H13.874V23.854C19.612 22.954 24 17.99 24 12Z" fill="#8E9867"/>
</g>
</g>
</g>
</g>
<defs>
<clipPath id="clip0_8231_3873">
<rect width="24" height="24" fill="white"/>
</clipPath>
<clipPath id="clip1_8231_3873">
<rect width="24" height="24" fill="white"/>
</clipPath>
<clipPath id="clip2_8231_3873">
<rect width="24" height="24" fill="white"/>
</clipPath>
</defs>
</svg>
