<svg width="24" height="24" viewBox="0 0 24 24" fill="none" xmlns="http://www.w3.org/2000/svg">
<g clip-path="url(#clip0_8231_3881)">
<g clip-path="url(#clip1_8231_3881)">
<g clip-path="url(#clip2_8231_3881)">
<mask id="mask0_8231_3881" style="mask-type:luminance" maskUnits="userSpaceOnUse" x="0" y="0" width="24" height="24">
<path d="M0 0H24V24H0V0Z" fill="white"/>
</mask>
<g mask="url(#mask0_8231_3881)">
<path d="M23.977 7.056C23.921 5.781 23.715 4.904 23.42 4.144C23.1186 3.34165 22.6448 2.61523 22.032 2.016C21.4324 1.40675 20.7077 0.934886 19.908 0.633C19.144 0.338 18.271 0.13 16.996 0.075C15.712 0.015 15.304 0 12.046 0C8.78597 0 8.37897 0.014 7.09897 0.07C5.82397 0.127 4.94697 0.333 4.18797 0.628C3.38525 0.929234 2.65847 1.40306 2.05897 2.016C1.44977 2.61563 0.977912 3.3403 0.675969 4.14C0.380969 4.904 0.173969 5.776 0.117969 7.05C0.0579688 8.336 0.0429688 8.744 0.0429688 12.002C0.0429688 15.261 0.0569688 15.669 0.112969 16.949C0.170969 18.224 0.375969 19.1 0.670969 19.86C0.974023 20.6618 1.4476 21.3882 2.05897 21.989C2.65842 22.5984 3.38314 23.0703 4.18297 23.372C4.94697 23.667 5.81897 23.873 7.09397 23.93C8.37397 23.986 8.78197 24 12.041 24C15.299 24 15.707 23.986 16.987 23.93C18.262 23.873 19.139 23.667 19.898 23.372C20.6957 23.0636 21.4202 22.5918 22.025 21.987C22.6298 21.3822 23.1015 20.6577 23.41 19.86C23.705 19.096 23.912 18.224 23.968 16.949C24.024 15.669 24.038 15.261 24.038 12.002C24.038 8.744 24.033 8.336 23.977 7.056ZM21.817 16.855C21.765 18.027 21.567 18.66 21.404 19.082C21.2037 19.5997 20.8975 20.0697 20.5048 20.462C20.1122 20.8544 19.6418 21.1602 19.124 21.36C18.703 21.525 18.065 21.721 16.898 21.773C15.632 21.829 15.252 21.843 12.05 21.843C8.84797 21.843 8.46297 21.829 7.20197 21.773C6.02997 21.721 5.39697 21.525 4.97497 21.36C4.45425 21.1689 3.98326 20.863 3.59697 20.465C3.19955 20.078 2.89345 19.6072 2.70097 19.087C2.53697 18.665 2.34097 18.027 2.28897 16.86C2.23197 15.594 2.21897 15.214 2.21897 12.012C2.21897 8.809 2.23197 8.425 2.28897 7.164C2.33997 5.992 2.53697 5.359 2.70097 4.937C2.89397 4.417 3.19797 3.943 3.60097 3.558C3.98827 3.16072 4.4594 2.85494 4.97997 2.663C5.40197 2.499 6.03997 2.303 7.20697 2.25C8.47297 2.194 8.85297 2.18 12.055 2.18C15.262 2.18 15.641 2.194 16.903 2.25C18.075 2.302 18.708 2.499 19.13 2.663C19.6506 2.85428 20.1215 3.16016 20.508 3.558C20.906 3.948 21.211 4.416 21.403 4.937C21.568 5.359 21.764 5.997 21.816 7.164C21.872 8.43 21.886 8.809 21.886 12.012C21.886 15.214 21.873 15.589 21.817 16.855Z" fill="#8E9867"/>
<path d="M12.0459 5.83737C10.411 5.8379 8.84318 6.4876 7.68713 7.64365C6.53108 8.79969 5.88139 10.3675 5.88086 12.0024C5.88139 13.6373 6.53108 15.2051 7.68713 16.3611C8.84318 17.5171 10.411 18.1668 12.0459 18.1674C13.6808 18.1668 15.2485 17.5171 16.4046 16.3611C17.5606 15.2051 18.2103 13.6373 18.2109 12.0024C18.2103 10.3675 17.5606 8.79969 16.4046 7.64365C15.2485 6.4876 13.6808 5.8379 12.0459 5.83737ZM12.0459 16.0014C11.5206 16.0013 11.0004 15.8978 10.5152 15.6967C10.0299 15.4956 9.58897 15.2009 9.21758 14.8294C8.84619 14.458 8.55161 14.017 8.35065 13.5316C8.14969 13.0463 8.04629 12.5262 8.04636 12.0009C8.04643 11.4756 8.14995 10.9555 8.35103 10.4702C8.55211 9.9849 8.84681 9.54398 9.21829 9.17259C9.58977 8.80121 10.0308 8.50662 10.5161 8.30567C11.0014 8.10471 11.5216 8.00131 12.0469 8.00138C13.1077 8.00138 14.1251 8.4228 14.8753 9.17295C15.6254 9.92309 16.0469 10.9405 16.0469 12.0014C16.0469 13.0622 15.6254 14.0797 14.8753 14.8298C14.1251 15.5799 13.1077 16.0014 12.0469 16.0014H12.0459ZM19.8949 5.59337C19.9021 5.78686 19.8702 5.97981 19.8011 6.1607C19.7321 6.34158 19.6272 6.50668 19.4929 6.64611C19.3586 6.78555 19.1975 6.89647 19.0193 6.97223C18.8411 7.04798 18.6495 7.08703 18.4559 7.08703C18.2622 7.08703 18.0706 7.04798 17.8924 6.97223C17.7142 6.89647 17.5532 6.78555 17.4188 6.64611C17.2845 6.50668 17.1797 6.34158 17.1106 6.1607C17.0415 5.97981 17.0096 5.78686 17.0169 5.59337C17.0307 5.22101 17.1884 4.86853 17.4568 4.61C17.7251 4.35147 18.0832 4.20703 18.4559 4.20703C18.8285 4.20703 19.1866 4.35147 19.4549 4.61C19.7233 4.86853 19.881 5.22101 19.8949 5.59337Z" fill="#8E9867"/>
</g>
</g>
</g>
</g>
<defs>
<clipPath id="clip0_8231_3881">
<rect width="24" height="24" fill="white"/>
</clipPath>
<clipPath id="clip1_8231_3881">
<rect width="24" height="24" fill="white"/>
</clipPath>
<clipPath id="clip2_8231_3881">
<rect width="24" height="24" fill="white"/>
</clipPath>
</defs>
</svg>
