<svg width="24" height="24" viewBox="0 0 24 24" fill="none" xmlns="http://www.w3.org/2000/svg">
<g clip-path="url(#clip0_8231_3890)">
<g clip-path="url(#clip1_8231_3890)">
<g clip-path="url(#clip2_8231_3890)">
<path fill-rule="evenodd" clip-rule="evenodd" d="M20.099 20.45H16.689V14.88C16.689 13.553 16.668 11.844 14.917 11.844C13.141 11.844 12.871 13.292 12.871 14.787V20.451H9.462V8.997H12.732V10.563H12.779C13.234 9.663 14.347 8.713 16.007 8.713C19.461 8.713 20.1 11.084 20.1 14.169V20.451L20.099 20.45ZM5.617 7.434C5.357 7.434 5.1 7.381 4.86 7.278C4.61834 7.1733 4.40006 7.02132 4.218 6.831C4.03281 6.63786 3.88679 6.41067 3.788 6.162C3.58666 5.65458 3.58666 5.08942 3.788 4.582C3.887 4.332 4.032 4.104 4.216 3.912C4.39548 3.72112 4.61206 3.56892 4.85245 3.46471C5.09285 3.36051 5.35199 3.3065 5.614 3.306C6.138 3.306 6.642 3.523 7.013 3.909C7.384 4.296 7.593 4.821 7.593 5.369C7.59561 5.91177 7.38896 6.43466 7.016 6.829C6.83581 7.01917 6.61893 7.17082 6.37847 7.27481C6.13802 7.3788 5.87898 7.43295 5.617 7.434ZM3.91 20.451H7.324V8.997H3.908L3.909 20.451H3.91ZM21.798 0H2.197C1.26 0 0.5 0.775 0.5 1.73V22.268C0.5 23.224 1.26 24 2.197 24H21.798C22.736 24 23.5 23.224 23.5 22.268V1.731C23.5 0.775 22.736 0 21.798 0Z" fill="#8E9867"/>
</g>
</g>
</g>
<defs>
<clipPath id="clip0_8231_3890">
<rect width="24" height="24" fill="white"/>
</clipPath>
<clipPath id="clip1_8231_3890">
<rect width="24" height="24" fill="white"/>
</clipPath>
<clipPath id="clip2_8231_3890">
<rect width="23" height="24" fill="white" transform="translate(0.5)"/>
</clipPath>
</defs>
</svg>
