<svg width="19" height="19" viewBox="0 0 19 19" fill="none" xmlns="http://www.w3.org/2000/svg">
<path d="M12.1292 4.02425C12.1292 2.69682 11.0528 1.62058 9.72543 1.6205C8.39795 1.6205 7.32167 2.69677 7.32167 4.02425C7.32175 5.35167 8.39799 6.42801 9.72543 6.42801C11.0528 6.42793 12.1291 5.35163 12.1292 4.02425ZM13.4626 4.02425C13.4625 6.08804 11.7892 7.76132 9.72543 7.7614C7.66158 7.7614 5.98836 6.08808 5.98828 4.02425C5.98828 1.96036 7.66153 0.287109 9.72543 0.287109C11.7893 0.287183 13.4626 1.96041 13.4626 4.02425Z" fill="#23234E" stroke="#23234E" stroke-width="0.573957" stroke-linecap="round" stroke-linejoin="round"/>
<path d="M0.287109 17.1826C0.287109 12.8668 4.1963 9.49815 8.84869 9.49805C9.21689 9.49805 9.51538 9.79654 9.51538 10.1647C9.51538 10.5329 9.21689 10.8314 8.84869 10.8314C4.7807 10.8315 1.6205 13.7465 1.6205 17.1826C1.62048 17.5508 1.322 17.8493 0.953806 17.8493C0.585611 17.8493 0.287128 17.5508 0.287109 17.1826Z" fill="#23234E" stroke="#23234E" stroke-width="0.573957" stroke-linecap="round" stroke-linejoin="round"/>
<path d="M16.9534 13.4467C16.9534 12.6296 16.4034 12.1459 15.9312 12.1459C15.6331 12.1459 15.3269 12.3179 15.12 12.6602C14.9992 12.8599 14.7829 12.9818 14.5496 12.9819C14.3162 12.9819 14.0994 12.86 13.9787 12.6602C13.7718 12.318 13.4661 12.146 13.1681 12.1459C12.6958 12.1459 12.1459 12.6292 12.1459 13.4467C12.1459 14.2108 12.5396 15.0017 13.1192 15.6838C13.5972 16.2462 14.1439 16.6632 14.5496 16.8824C14.9554 16.6632 15.5016 16.246 15.9794 15.6838C16.559 15.0017 16.9534 14.2108 16.9534 13.4467ZM18.2868 13.4467C18.2868 14.6507 17.6826 15.7388 16.9957 16.5471C16.3107 17.3532 15.4567 17.9831 14.7905 18.2412C14.6356 18.3012 14.4637 18.3012 14.3087 18.2412C13.6426 17.9832 12.7886 17.3532 12.1036 16.5471C11.4167 15.7388 10.8125 14.6507 10.8125 13.4467C10.8125 12.0914 11.7754 10.8125 13.1681 10.8125C13.6966 10.8125 14.1695 11.0049 14.549 11.3125C14.9286 11.0046 15.4023 10.8125 15.9312 10.8125C17.3239 10.8125 18.2867 12.092 18.2868 13.4467Z" fill="#23234E" stroke="#23234E" stroke-width="0.573957" stroke-linecap="round" stroke-linejoin="round"/>
</svg>
