<svg width="36" height="36" viewBox="0 0 36 36" fill="none" xmlns="http://www.w3.org/2000/svg">
<path d="M25.3637 0C22.5224 0 19.8505 1.10662 17.8434 3.11536L3.11612 17.8426C1.10738 19.8521 0 22.5232 0 25.3637C0 31.2284 4.77164 36.0001 10.6364 36.0001C13.4793 36.0001 16.1495 34.8935 18.1567 32.8847L32.884 18.1582C34.8942 16.1487 36.0001 13.4776 36.0001 10.6363C36 4.77164 31.2284 0 25.3637 0ZM11.4961 16.4052L6.58701 21.3135C5.50517 22.3954 4.90909 23.8343 4.90909 25.3637C4.90909 25.8159 4.54314 26.1819 4.09089 26.1819C3.63864 26.1819 3.27268 25.8159 3.27268 25.3637C3.27268 23.3965 4.03811 21.5476 5.43 20.1566L10.3391 15.2483C10.6587 14.9286 11.1765 14.9286 11.496 15.2483C11.8157 15.5678 11.8157 16.0856 11.4961 16.4052ZM30.57 15.8443L23.7849 22.6285L13.3721 12.2145L20.1574 5.42923C21.5476 4.03819 23.3965 3.27268 25.3637 3.27268C29.4243 3.27268 32.7273 6.57581 32.7273 10.6363C32.7273 12.6035 31.9619 14.4532 30.57 15.8443Z" fill="#23234E"/>
</svg>
