<svg width="36" height="36" viewBox="0 0 36 36" fill="none" xmlns="http://www.w3.org/2000/svg">
<path d="M4.04999 28.3515C0.225 23.1765 -0.524999 16.2015 2.475 10.2766L0 8.62656L6.44999 7.35156L7.72499 13.8016L5.54999 12.3766C3.67499 16.5015 4.04999 21.3015 6.29999 25.0515" fill="#23234E"/>
<path d="M7.65039 4.04999C12.8254 0.225 19.8004 -0.524999 25.7254 2.475L27.3754 0L28.6504 6.44999L22.2004 7.72499L23.6254 5.54999C19.5004 3.67499 14.7004 4.04999 10.9504 6.29999" fill="#23234E"/>
<path d="M31.9504 7.65039C35.7754 12.8254 36.4504 19.8004 33.5254 25.7254L36.0004 27.3754L29.5504 28.6504L28.2754 22.2004L30.4504 23.6254C32.3254 19.5004 32.0254 14.7004 29.7004 10.9504" fill="#23234E"/>
<path d="M28.3515 31.9504C23.1765 35.7754 16.2015 36.5254 10.2766 33.6004L8.62656 36.0004L7.35156 29.5504L13.8016 28.2754L12.3766 30.4504C16.5015 32.3254 21.3015 31.9504 25.0515 29.7004" fill="#23234E"/>
<path d="M18.0004 6.82617C18.0004 6.82617 11.4004 16.5762 11.4004 20.1761C11.4004 23.8511 14.3254 26.7761 18.0004 26.7761C21.6754 26.7761 24.6004 23.7761 24.6004 20.1761C24.6004 16.5762 18.0004 6.82617 18.0004 6.82617ZM19.2754 24.9761C19.2004 24.9761 19.2004 24.9761 19.1254 24.9761C18.9004 24.9761 18.6004 24.8261 18.5254 24.5261C18.4504 24.2261 18.6004 23.9261 18.9004 23.8511C20.4754 23.4011 21.6004 21.9761 21.6004 20.2511C21.6004 19.9511 21.4504 19.0512 20.1754 16.5012C20.0254 16.2012 20.1754 15.9012 20.4754 15.7512C20.7754 15.6012 21.0754 15.7512 21.2254 16.0512C22.2004 18.0762 22.7254 19.5012 22.7254 20.3261C22.8754 22.4261 21.3754 24.3761 19.2754 24.9761Z" fill="#23234E"/>
</svg>
