<svg width="20" height="22" viewBox="0 0 20 22" fill="none" xmlns="http://www.w3.org/2000/svg">
<path d="M7.06283 18.7238C5.47808 17.9406 4.19046 16.7576 3.19999 15.1748C2.20952 13.5921 1.71428 11.8054 1.71428 9.81469C1.71428 9.39044 1.73348 8.97436 1.77188 8.56643C1.81028 8.15851 1.87489 7.75874 1.96571 7.36713L0.914283 8.02797L0 6.33916L4.3657 3.64685L6.87998 8.2972L5.27998 9.27623L4.0457 6.97553C3.87808 7.41608 3.75252 7.87296 3.66902 8.34615C3.58551 8.81935 3.54346 9.30886 3.54285 9.81469C3.54285 11.3974 3.94665 12.8376 4.75427 14.1351C5.56189 15.4326 6.63617 16.3911 7.97712 17.0105L7.06283 18.7238ZM14.0571 6.85315V4.89511H16.5485C15.8476 3.96504 15.0019 3.24317 14.0114 2.72951C13.0209 2.21585 11.9695 1.95869 10.8571 1.95804C10.019 1.95804 9.22664 2.09674 8.47997 2.37413C7.73331 2.65152 7.0476 3.04312 6.42284 3.54895L5.50855 1.83566C6.27046 1.26457 7.10093 0.815851 7.99997 0.489511C8.89902 0.16317 9.8514 0 10.8571 0C12.0609 0 13.2114 0.240839 14.3085 0.722517C15.4057 1.2042 16.3885 1.90126 17.2571 2.81371V1.46853H19.0857V6.85315H14.0571ZM13.4628 21.5385L9.09711 18.8462L11.6114 14.1958L13.1885 15.1748L11.8857 17.5734C13.6838 17.296 15.1811 16.4231 16.3775 14.9545C17.574 13.486 18.172 11.7646 18.1714 9.79021C18.1714 9.61072 18.1677 9.44331 18.1604 9.28797C18.1531 9.13264 18.1339 8.97371 18.1028 8.81119H19.9542C19.9695 8.97436 19.981 9.13361 19.989 9.28895C19.9969 9.44429 20.0005 9.61138 19.9999 9.79021C19.9999 11.993 19.3865 13.9635 18.1595 15.7015C16.9325 17.4396 15.3365 18.6102 13.3714 19.2133L14.3771 19.8497L13.4628 21.5385Z" fill="#23234E"/>
</svg>
