<svg width="32" height="32" viewBox="0 0 32 32" fill="none" xmlns="http://www.w3.org/2000/svg">
<g clip-path="url(#clip0_8231_3498)">
<rect width="32" height="32" rx="8.88889" fill="white"/>
<g clip-path="url(#clip1_8231_3498)">
<path d="M8.55415 15.6871C8.55415 16.9461 8.86906 18.1163 9.49889 19.1976C10.1287 20.2789 10.984 21.1455 12.0647 21.7972C12.2721 21.9305 12.4167 22.1121 12.4984 22.342C12.5802 22.5719 12.5615 22.7902 12.4424 22.997C12.3239 23.2192 12.1426 23.3638 11.8985 23.4307C11.6544 23.4977 11.421 23.4716 11.1982 23.3525C9.82061 22.5527 8.7393 21.4713 7.95424 20.1086C7.16918 18.7458 6.77665 17.272 6.77665 15.6871C6.77665 15.3019 6.80272 14.9242 6.85486 14.5539C6.907 14.1836 6.97721 13.8133 7.06549 13.443L6.77665 13.6207C6.56927 13.754 6.34708 13.7875 6.11008 13.7211C5.87308 13.6548 5.69533 13.5176 5.57683 13.3097C5.45833 13.1017 5.43226 12.8756 5.49862 12.6315C5.56498 12.3874 5.70215 12.2061 5.91011 12.0876L8.59858 10.5323C8.80596 10.4138 9.032 10.388 9.2767 10.455C9.5214 10.5219 9.70271 10.6588 9.82061 10.8656L11.3759 13.5318C11.4944 13.7392 11.5205 13.9653 11.4541 14.21C11.3878 14.4547 11.2506 14.636 11.0426 14.7539C10.8347 14.8718 10.6089 14.8979 10.3654 14.8321C10.1219 14.7663 9.9403 14.6292 9.82061 14.4206L9.06518 13.1097C8.90224 13.5244 8.77633 13.9466 8.68746 14.3762C8.59858 14.8057 8.55415 15.2427 8.55415 15.6871ZM15.6641 8.55484C15.0568 8.55484 14.4569 8.63276 13.8644 8.78858C13.2719 8.94441 12.7091 9.17016 12.1758 9.46581C11.9536 9.58431 11.7205 9.6252 11.4764 9.58846C11.2322 9.55173 11.0506 9.42937 10.9316 9.22141C10.7982 8.98441 10.7686 8.74385 10.8427 8.49974C10.9167 8.25563 11.0723 8.06662 11.3093 7.93272C11.9758 7.54759 12.6759 7.25875 13.4094 7.06619C14.1429 6.87363 14.8945 6.77734 15.6641 6.77734C16.8343 6.77734 17.9565 6.99598 19.0307 7.43324C20.1049 7.87051 21.0639 8.50359 21.9076 9.3325V8.99922C21.9076 8.74741 21.9929 8.53648 22.1636 8.36643C22.3342 8.19638 22.5451 8.11106 22.7964 8.11047C23.0476 8.10988 23.2588 8.1952 23.43 8.36643C23.6013 8.53766 23.6863 8.74859 23.6851 8.99922V12.1098C23.6851 12.3617 23.6001 12.5729 23.43 12.7435C23.26 12.9142 23.0488 12.9992 22.7964 12.9986H19.6857C19.4339 12.9986 19.223 12.9133 19.0529 12.7426C18.8829 12.572 18.7976 12.3611 18.797 12.1098C18.7964 11.8586 18.8817 11.6477 19.0529 11.4771C19.2242 11.3064 19.4351 11.2211 19.6857 11.2211H21.2188C20.5375 10.3768 19.7154 9.72148 18.7526 9.25518C17.7897 8.78888 16.7603 8.55544 15.6641 8.55484ZM21.0411 20.353C21.604 19.7013 22.0335 18.9828 22.3298 18.1978C22.626 17.4127 22.7741 16.5906 22.7741 15.7315C22.7741 15.4797 22.8595 15.2575 23.0301 15.0649C23.2007 14.8724 23.4117 14.7761 23.6629 14.7761C23.9141 14.7761 24.1253 14.8724 24.2966 15.0649C24.4678 15.2575 24.5528 15.4797 24.5516 15.7315C24.5516 16.6943 24.3997 17.6236 24.0957 18.5195C23.7918 19.4154 23.3512 20.2487 22.7741 21.0196C22.1971 21.7904 21.5121 22.4496 20.7194 22.997C19.9266 23.5445 19.0636 23.9518 18.1304 24.2191L18.3526 24.3524C18.56 24.4709 18.6933 24.6525 18.7526 24.8972C18.8118 25.1419 18.7822 25.3676 18.6637 25.5744C18.5452 25.7812 18.3674 25.9145 18.1304 25.9743C17.8934 26.0342 17.6712 26.0046 17.4639 25.8855L14.7532 24.3302C14.5458 24.2117 14.4089 24.0301 14.3426 23.7854C14.2762 23.5406 14.302 23.3149 14.4199 23.1081L15.9752 20.4197C16.0937 20.2123 16.2715 20.079 16.5085 20.0197C16.7455 19.9605 16.9676 19.9901 17.175 20.1086C17.3824 20.2271 17.5196 20.4087 17.5865 20.6534C17.6535 20.8981 17.6274 21.1238 17.5083 21.3306L16.6862 22.7304C17.5305 22.6119 18.3268 22.3488 19.0752 21.9412C19.8235 21.5336 20.4788 21.0042 21.0411 20.353Z" fill="#23234E"/>
</g>
</g>
<defs>
<clipPath id="clip0_8231_3498">
<rect width="32" height="32" rx="8.88889" fill="white"/>
</clipPath>
<clipPath id="clip1_8231_3498">
<rect width="21.33" height="21.33" fill="white" transform="translate(5 5)"/>
</clipPath>
</defs>
</svg>
