<svg width="14" height="14" viewBox="0 0 14 14" fill="none" xmlns="http://www.w3.org/2000/svg">
<path d="M7.38058 0.0971711C7.24626 0.0331969 7.09935 0 6.95058 0C6.8018 0 6.6549 0.0331969 6.52058 0.0971711C6.33987 0.19019 6.19038 0.334119 6.09058 0.511171C6.02258 0.621171 5.95258 0.762171 5.88558 0.900171L4.44758 3.81117L1.23358 4.28117C1.08825 4.30002 0.943782 4.32504 0.800578 4.35617C0.601459 4.39676 0.418594 4.4948 0.274578 4.63817C0.17203 4.74625 0.0949283 4.87587 0.0489064 5.01757C0.00288445 5.15927 -0.0108942 5.30946 0.00857762 5.45717C0.0435776 5.71517 0.188578 5.89917 0.269578 5.99417C0.353578 6.09217 0.466578 6.20217 0.575578 6.30817L2.90158 8.57417L2.35258 11.7732C2.32658 11.9232 2.30058 12.0792 2.28958 12.2082C2.27958 12.3332 2.26958 12.5672 2.39458 12.7962C2.46571 12.9271 2.56522 13.0405 2.68581 13.1281C2.8064 13.2156 2.94504 13.2751 3.09158 13.3022C3.29236 13.3331 3.49782 13.3046 3.68258 13.2202C3.80258 13.1702 3.94258 13.0972 4.07758 13.0262L6.95058 11.5132L9.82458 13.0252C9.96058 13.0962 10.0986 13.1692 10.2186 13.2192C10.3346 13.2672 10.5536 13.3492 10.8106 13.3012C10.9569 13.274 11.0954 13.2144 11.2158 13.1269C11.3362 13.0393 11.4355 12.926 11.5066 12.7952C11.5983 12.6137 11.6348 12.4092 11.6116 12.2072C11.5971 12.0614 11.5764 11.9162 11.5496 11.7722L11.0006 8.57317L13.3256 6.30817C13.4322 6.20811 13.5343 6.10334 13.6316 5.99417C13.7692 5.84453 13.8599 5.65783 13.8926 5.45717C13.9122 5.30954 13.8986 5.15939 13.8527 5.0177C13.8069 4.876 13.7299 4.74634 13.6276 4.63817C13.4833 4.49463 13.3001 4.39658 13.1006 4.35617C12.9577 4.32507 12.8136 4.30005 12.6686 4.28117L9.45358 3.81117L8.01658 0.900171C7.95385 0.767625 7.88546 0.637839 7.81158 0.511171C7.71178 0.334119 7.56129 0.19019 7.38058 0.0971711Z" fill="#F3DE8A"/>
</svg>
