<svg width="32" height="32" viewBox="0 0 32 32" fill="none" xmlns="http://www.w3.org/2000/svg">
<rect width="32" height="32" rx="8.88889" fill="white"/>
<path d="M12.4454 16.8899C14.9 16.8899 16.8899 14.9 16.8899 12.4454C16.8899 9.99082 14.9 8.00098 12.4454 8.00098C9.99082 8.00098 8.00098 9.99082 8.00098 12.4454C8.00098 14.9 9.99082 16.8899 12.4454 16.8899Z" fill="white" fill-opacity="0.15"/>
<path d="M22.2232 24.001C23.205 24.001 24.001 23.205 24.001 22.2232C24.001 21.2414 23.205 20.4454 22.2232 20.4454C21.2414 20.4454 20.4454 21.2414 20.4454 22.2232C20.4454 23.205 21.2414 24.001 22.2232 24.001Z" fill="white" fill-opacity="0.15"/>
<path d="M22.2232 20.4454C23.205 20.4454 24.001 21.2414 24.001 22.2232C24.001 23.205 23.205 24.001 22.2232 24.001C21.2414 24.001 20.4454 23.205 20.4454 22.2232C20.4454 21.2414 21.2414 20.4454 22.2232 20.4454ZM22.2232 20.4454V19.1121C22.2232 18.5227 21.9891 17.9575 21.5723 17.5407C21.1556 17.124 20.5903 16.8899 20.001 16.8899C19.4116 16.8899 18.8464 17.124 18.4296 17.5407C18.0129 17.9575 17.7788 18.5227 17.7788 19.1121V20.4454C17.7788 21.1527 17.4978 21.8309 16.9977 22.331C16.4976 22.8311 15.8193 23.1121 15.1121 23.1121C14.4048 23.1121 13.7266 22.8311 13.2265 22.331C12.7264 21.8309 12.4454 21.1527 12.4454 20.4454V16.8899M12.4454 10.2232V12.4454L13.5565 13.5565M12.4454 16.8899C14.9 16.8899 16.8899 14.9 16.8899 12.4454C16.8899 9.99082 14.9 8.00098 12.4454 8.00098C9.99082 8.00098 8.00098 9.99082 8.00098 12.4454C8.00098 14.9 9.99082 16.8899 12.4454 16.8899Z" stroke="#23234E" stroke-width="1.77778" stroke-linecap="round" stroke-linejoin="round"/>
</svg>
