<svg width="32" height="32" viewBox="0 0 32 32" fill="none" xmlns="http://www.w3.org/2000/svg">
<rect width="32" height="32" rx="8.88889" fill="white"/>
<g clip-path="url(#clip0_8231_3525)">
<path d="M19.0927 15.9779V8.42905C19.0927 7.51961 18.7314 6.64742 18.0883 6.00434C17.4452 5.36127 16.5731 5 15.6636 5C14.7542 5 13.882 5.36127 13.2389 6.00434C12.5958 6.64742 12.2346 7.51961 12.2346 8.42905V15.9779C11.5155 16.5122 10.9316 17.2076 10.5297 18.0082C10.1277 18.8089 9.91891 19.6925 9.91993 20.5884C9.91993 23.7308 12.4804 26.3079 15.6224 26.33H15.664C16.8714 26.3299 18.0481 25.9494 19.0268 25.2425C20.0056 24.5356 20.7368 23.5382 21.1164 22.3921C21.4961 21.2459 21.5049 20.0093 21.1417 18.8579C20.7785 17.7064 20.0617 16.6987 19.0931 15.9779H19.0927ZM15.6636 24.7469H15.6336C14.9238 24.7414 14.2272 24.5544 13.6099 24.2038C12.9927 23.8532 12.4754 23.3506 12.1071 22.7438C11.7388 22.1369 11.5318 21.446 11.5058 20.7366C11.4798 20.0272 11.6356 19.323 11.9584 18.6908C12.2511 18.1234 12.6691 17.6301 13.1807 17.2481L13.8177 16.7736V8.42905C13.8177 7.93947 14.0121 7.46994 14.3583 7.12376C14.7045 6.77757 15.174 6.58309 15.6636 6.58309C16.1532 6.58309 16.6227 6.77757 16.9689 7.12376C17.3151 7.46994 17.5096 7.93947 17.5096 8.42905V16.7727L18.1466 17.2481C18.6581 17.6302 19.0759 18.1237 19.3684 18.6912C19.6702 19.2775 19.8265 19.9278 19.8242 20.5871C19.8226 21.69 19.3837 22.7472 18.6037 23.527C17.8238 24.3068 16.7665 24.7455 15.6636 24.7469Z" fill="#23234E"/>
<path d="M16.4142 17.6886V11.2538C16.4142 11.0549 16.3352 10.8642 16.1946 10.7235C16.0539 10.5829 15.8632 10.5039 15.6643 10.5039C15.4655 10.5039 15.2747 10.5829 15.1341 10.7235C14.9935 10.8642 14.9144 11.0549 14.9144 11.2538V17.6886C14.2095 17.8711 13.5953 18.3044 13.1869 18.9072C12.7784 19.5101 12.6039 20.2412 12.6958 20.9636C12.7878 21.6859 13.14 22.3499 13.6865 22.8312C14.2329 23.3125 14.9361 23.578 15.6643 23.578C16.3925 23.578 17.0957 23.3125 17.6422 22.8312C18.1886 22.3499 18.5408 21.6859 18.6328 20.9636C18.7248 20.2412 18.5502 19.5101 18.1418 18.9072C17.7334 18.3044 17.1192 17.8711 16.4142 17.6886Z" fill="#23234E"/>
<path d="M20.7753 9.16578H23.7881C23.987 9.16578 24.1778 9.08678 24.3184 8.94615C24.459 8.80552 24.538 8.61478 24.538 8.4159C24.538 8.21702 24.459 8.02628 24.3184 7.88565C24.1778 7.74502 23.987 7.66602 23.7881 7.66602H20.7753C20.5764 7.66602 20.3857 7.74502 20.245 7.88565C20.1044 8.02628 20.0254 8.21702 20.0254 8.4159C20.0254 8.61478 20.1044 8.80552 20.245 8.94615C20.3857 9.08678 20.5764 9.16578 20.7753 9.16578Z" fill="#23234E"/>
<path d="M23.7881 14.0918H20.7753C20.5764 14.0918 20.3857 14.1708 20.245 14.3114C20.1044 14.4521 20.0254 14.6428 20.0254 14.8417C20.0254 15.0406 20.1044 15.2313 20.245 15.3719C20.3857 15.5126 20.5764 15.5916 20.7753 15.5916H23.7881C23.987 15.5916 24.1778 15.5126 24.3184 15.3719C24.459 15.2313 24.538 15.0406 24.538 14.8417C24.538 14.6428 24.459 14.4521 24.3184 14.3114C24.1778 14.1708 23.987 14.0918 23.7881 14.0918Z" fill="#23234E"/>
<path d="M20.7753 12.3787H22.2821C22.481 12.3787 22.6717 12.2997 22.8124 12.159C22.953 12.0184 23.032 11.8277 23.032 11.6288C23.032 11.4299 22.953 11.2392 22.8124 11.0985C22.6717 10.9579 22.481 10.8789 22.2821 10.8789H20.7753C20.6768 10.8789 20.5793 10.8983 20.4883 10.936C20.3973 10.9737 20.3147 11.0289 20.245 11.0985C20.1754 11.1682 20.1202 11.2508 20.0825 11.3418C20.0448 11.4328 20.0254 11.5303 20.0254 11.6288C20.0254 11.7273 20.0448 11.8248 20.0825 11.9158C20.1202 12.0067 20.1754 12.0894 20.245 12.159C20.3147 12.2287 20.3973 12.2839 20.4883 12.3216C20.5793 12.3593 20.6768 12.3787 20.7753 12.3787Z" fill="#23234E"/>
</g>
<defs>
<clipPath id="clip0_8231_3525">
<rect width="21.33" height="21.33" fill="white" transform="translate(5 5)"/>
</clipPath>
</defs>
</svg>
