<svg width="20" height="16" viewBox="0 0 20 16" fill="none" xmlns="http://www.w3.org/2000/svg">
<path d="M18.1818 4.54492C16.8636 4.54492 16.1273 5.85401 16.4273 6.82674L13.2 10.0631C12.9273 9.98129 12.5273 9.98129 12.2545 10.0631L9.93636 7.74492C10.2455 6.7722 9.50909 5.45401 8.18182 5.45401C6.86364 5.45401 6.11818 6.7631 6.42727 7.74492L2.28182 11.8813C1.30909 11.5813 0 12.3176 0 13.6358C0 14.6358 0.818182 15.454 1.81818 15.454C3.13636 15.454 3.87273 14.1449 3.57273 13.1722L7.70909 9.02674C7.98182 9.10856 8.38182 9.10856 8.65455 9.02674L10.9727 11.3449C10.6636 12.3176 11.4 13.6358 12.7273 13.6358C14.0455 13.6358 14.7909 12.3267 14.4818 11.3449L17.7182 8.11765C18.6909 8.41765 20 7.68129 20 6.3631C20 5.3631 19.1818 4.54492 18.1818 4.54492Z" fill="#23234E"/>
<path d="M12.7273 5.45455L13.5818 3.57273L15.4545 2.72727L13.5818 1.88182L12.7273 0L11.8909 1.88182L10 2.72727L11.8909 3.57273L12.7273 5.45455ZM2.27273 7.27273L2.72727 5.45455L4.54545 5L2.72727 4.54545L2.27273 2.72727L1.81818 4.54545L0 5L1.81818 5.45455L2.27273 7.27273Z" fill="#23234E"/>
</svg>
